<svg xmlns="http://www.w3.org/2000/svg" viewBox="0 0 900 360" width="900" height="360">
  <defs>
    <style>
      @import url('https://fonts.googleapis.com/css2?family=Caveat:wght@600;700&amp;family=Space+Mono:wght@400;700&amp;family=Inter:wght@600;700;800&amp;display=swap');

      @keyframes floatLeft { 0%, 100% { transform: translateY(0px) rotate(-10deg); } 50% { transform: translateY(-5px) rotate(-8deg); } }
      @keyframes floatRight { 0%, 100% { transform: translateY(0px) rotate(8deg); } 50% { transform: translateY(-5px) rotate(6deg); } }
      @keyframes twinkle { 0%, 100% { opacity: 0.35; transform: scale(0.9); } 50% { opacity: 1; transform: scale(1.2); } }

      .anim-left { animation: floatLeft 5s ease-in-out infinite; transform-origin: 90px 80px; }
      .anim-right { animation: floatRight 6s ease-in-out infinite 0.5s; transform-origin: 800px 260px; }
      .star-blue { animation: twinkle 3.2s ease-in-out infinite; transform-origin: center; }
      .star-pink { animation: twinkle 4s ease-in-out infinite 1s; transform-origin: center; }

      .hand-script { font-family: 'Caveat', 'Segoe Print', 'Bradley Hand', cursive, sans-serif; }
      .mono-text { font-family: 'Space Mono', 'Courier New', monospace; }
      .sans-text { font-family: 'Inter', 'Segoe UI', -apple-system, sans-serif; }

      .btn-hover:hover { opacity: 0.85; cursor: pointer; }
    </style>

    <!-- Crumpled Paper Shading Filter -->
    <filter id="crumpled-texture" x="0%" y="0%" width="100%" height="100%">
      <feTurbulence type="fractalNoise" baseFrequency="0.035 0.04" numOctaves="4" result="noise" />
      <feDiffuseLighting in="noise" lighting-color="#ffffff" surfaceScale="2.8" result="light">
        <feDistantLight azimuth="45" elevation="55" />
      </feDiffuseLighting>
      <feComponentTransfer>
        <feFuncR type="linear" slope="0.94" intercept="0.05" />
        <feFuncG type="linear" slope="0.93" intercept="0.05" />
        <feFuncB type="linear" slope="0.90" intercept="0.06" />
      </feComponentTransfer>
      <feBlend mode="multiply" in="SourceGraphic" result="blend" />
    </filter>

    <!-- Paper Base Gradient -->
    <linearGradient id="paper-base" x1="0%" y1="0%" x2="100%" y2="100%">
      <stop offset="0%" stop-color="#fbf9f4" />
      <stop offset="35%" stop-color="#f5f1e8" />
      <stop offset="70%" stop-color="#faf7f0" />
      <stop offset="100%" stop-color="#f2eee4" />
    </linearGradient>

    <!-- Crease Fold Gradients -->
    <linearGradient id="fold-shadow-1" x1="0%" y1="0%" x2="100%" y2="100%">
      <stop offset="0%" stop-color="#000000" stop-opacity="0.07" />
      <stop offset="50%" stop-color="#000000" stop-opacity="0.01" />
      <stop offset="100%" stop-color="#ffffff" stop-opacity="0.25" />
    </linearGradient>
    <linearGradient id="fold-shadow-2" x1="100%" y1="0%" x2="0%" y2="100%">
      <stop offset="0%" stop-color="#000000" stop-opacity="0.08" />
      <stop offset="45%" stop-color="#000000" stop-opacity="0.01" />
      <stop offset="100%" stop-color="#ffffff" stop-opacity="0.25" />
    </linearGradient>

    <!-- Washi Tape Translucent Colors -->
    <linearGradient id="washi-blue" x1="0%" y1="0%" x2="100%" y2="0%">
      <stop offset="0%" stop-color="#93c5fd" stop-opacity="0.75" />
      <stop offset="50%" stop-color="#bfdbfe" stop-opacity="0.65" />
      <stop offset="100%" stop-color="#60a5fa" stop-opacity="0.70" />
    </linearGradient>
    <linearGradient id="washi-pink" x1="0%" y1="0%" x2="100%" y2="0%">
      <stop offset="0%" stop-color="#f472b6" stop-opacity="0.70" />
      <stop offset="50%" stop-color="#fbcfe8" stop-opacity="0.60" />
      <stop offset="100%" stop-color="#ec4899" stop-opacity="0.65" />
    </linearGradient>

    <linearGradient id="die-shimmer" x1="0%" y1="0%" x2="100%" y2="100%">
      <stop offset="0%" stop-color="#2563eb" />
      <stop offset="50%" stop-color="#3b82f6" />
      <stop offset="100%" stop-color="#ec4899" />
    </linearGradient>

    <filter id="sticker-shadow" x="-20%" y="-20%" width="140%" height="140%">
      <feDropShadow dx="2" dy="5" stdDeviation="6" flood-color="#0f172a" flood-opacity="0.16" />
    </filter>
  </defs>

  <!-- Base Paper Sheet with Crumpled Texture -->
  <rect width="900" height="360" fill="url(#paper-base)" />
  <rect width="900" height="360" fill="url(#paper-base)" filter="url(#crumpled-texture)" opacity="0.65" />

  <!-- Crumpled Creases & Facets -->
  <g opacity="0.85">
    <polygon points="-20,40 280,-10 420,160 140,210" fill="url(#fold-shadow-1)" />
    <polygon points="420,160 740,20 920,110 610,230" fill="url(#fold-shadow-2)" />
    <polygon points="140,210 420,160 520,380 180,380" fill="url(#fold-shadow-1)" />
    <polygon points="610,230 920,110 930,380 520,380" fill="url(#fold-shadow-2)" />
    <g stroke="#cbd5e1" stroke-width="0.8" opacity="0.7" stroke-linecap="round">
      <line x1="280" y1="-10" x2="420" y2="160" />
      <line x1="420" y1="160" x2="610" y2="230" />
      <line x1="420" y1="160" x2="140" y2="210" />
      <line x1="740" y1="20"  x2="610" y2="230" />
    </g>
  </g>

  <!-- Dotted Margin Lines -->
  <g stroke="#94a3b8" stroke-width="0.8" stroke-dasharray="4,4" opacity="0.4">
    <line x1="60" y1="20" x2="840" y2="20" />
    <line x1="60" y1="340" x2="840" y2="340" />
  </g>

  <!-- COMPUTER COMPONENT & SCRAPBOOK STICKERS (AI INFRA, LLMS, AGENTS, WEB3) -->

  <!-- Top-Left 1: Multi-Core CPU Processor + Blue Washi Tape -->
  <g class="anim-left" transform="translate(45, 35)" filter="url(#sticker-shadow)">
    <polygon points="-12,6 58,-8 61,12 -10,26" fill="url(#washi-blue)" />
    <rect x="6" y="16" width="46" height="46" rx="8" fill="#ffffff" />
    <rect x="9" y="19" width="40" height="40" rx="5" fill="#0f172a" />
    <rect x="14" y="24" width="30" height="30" rx="3" fill="#1e293b" stroke="#334155" stroke-width="0.8" />
    <text x="29" y="38" text-anchor="middle" class="mono-text" font-size="6" font-weight="700" fill="#cbd5e1" letter-spacing="0.5">CPU</text>
    <text x="29" y="47" text-anchor="middle" class="mono-text" font-size="4.5" font-weight="700" fill="#93c5fd">HOST·X86</text>
    <polygon points="11,21 15,21 11,25" fill="#ec4899" />
  </g>

  <!-- Top-Left 2: DIP-8 Logic / Compute IC Sticker (Silicon Logic & Activation Core) -->
  <g transform="translate(170, 52) rotate(15)" filter="url(#sticker-shadow)">
    <rect x="-16" y="-14" width="32" height="28" rx="6" fill="#ffffff" />
    <g stroke="#94a3b8" stroke-width="1.6" stroke-linecap="round">
      <line x1="-13" y1="-10" x2="-16" y2="-10" />
      <line x1="-13" y1="-3" x2="-16" y2="-3" />
      <line x1="-13" y1="4" x2="-16" y2="4" />
      <line x1="-13" y1="11" x2="-16" y2="11" />
      <line x1="13" y1="-10" x2="16" y2="-10" />
      <line x1="13" y1="-3" x2="16" y2="-3" />
      <line x1="13" y1="4" x2="16" y2="4" />
      <line x1="13" y1="11" x2="16" y2="11" />
    </g>
    <rect x="-12" y="-11" width="24" height="22" rx="3" fill="#0f172a" stroke="#2563eb" stroke-width="0.8" />
    <circle cx="-7" cy="-7" r="1.2" fill="#ec4899" />
    <text x="0" y="3" text-anchor="middle" class="mono-text" font-size="5" font-weight="700" fill="#cbd5e1">AI-8</text>
  </g>

  <!-- Mid-Left: Server RAM / Memory DIMM Stick Sticker (Memory Bandwidth & Caching) -->
  <g transform="translate(70, 142) rotate(-16)" filter="url(#sticker-shadow)">
    <rect x="-34" y="-13" width="68" height="26" rx="6" fill="#ffffff" />
    <rect x="-31" y="-10" width="62" height="20" rx="3.5" fill="#0f172a" />
    <rect x="-26" y="-7" width="9" height="10" rx="1.5" fill="#1e293b" stroke="#334155" stroke-width="0.6" />
    <rect x="-14" y="-7" width="9" height="10" rx="1.5" fill="#1e293b" stroke="#334155" stroke-width="0.6" />
    <rect x="-1" y="-7" width="9" height="10" rx="1.5" fill="#1e293b" stroke="#334155" stroke-width="0.6" />
    <rect x="12" y="-7" width="9" height="10" rx="1.5" fill="#1e293b" stroke="#334155" stroke-width="0.6" />
    <g stroke="#cbd5e1" stroke-width="1.1" stroke-linecap="round">
      <line x1="-28" y1="7" x2="-28" y2="9.5" />
      <line x1="-24" y1="7" x2="-24" y2="9.5" />
      <line x1="-20" y1="7" x2="-20" y2="9.5" />
      <line x1="-16" y1="7" x2="-16" y2="9.5" />
      <line x1="-10" y1="7" x2="-10" y2="9.5" />
      <line x1="-6" y1="7" x2="-6" y2="9.5" />
      <line x1="6" y1="7" x2="6" y2="9.5" />
      <line x1="10" y1="7" x2="10" y2="9.5" />
      <line x1="16" y1="7" x2="16" y2="9.5" />
      <line x1="20" y1="7" x2="20" y2="9.5" />
      <line x1="24" y1="7" x2="24" y2="9.5" />
    </g>
    <circle cx="-29" cy="-4" r="1.2" fill="#ec4899" />
    <circle cx="25" cy="-4" r="1.2" fill="#2563eb" />
  </g>

  <!-- Lower-Mid-Left: NVMe M.2 High-Speed SSD Sticker (Fast Vector DB & Model Weights) -->
  <g transform="translate(38, 200) rotate(22)" filter="url(#sticker-shadow)">
    <rect x="-12" y="-28" width="24" height="56" rx="5" fill="#ffffff" />
    <rect x="-9.5" y="-25.5" width="19" height="51" rx="3" fill="#0f172a" />
    <g stroke="#cbd5e1" stroke-width="1" stroke-linecap="round">
      <line x1="-7" y1="-23" x2="-7" y2="-21" />
      <line x1="-4" y1="-23" x2="-4" y2="-21" />
      <line x1="4" y1="-23" x2="4" y2="-21" />
      <line x1="7" y1="-23" x2="7" y2="-21" />
    </g>
    <rect x="-7.5" y="-16" width="15" height="14" rx="1.5" fill="#1e293b" stroke="#334155" stroke-width="0.5" />
    <rect x="-7.5" y="1" width="15" height="14" rx="1.5" fill="#1e293b" stroke="#334155" stroke-width="0.5" />
    <line x1="-7" y1="18" x2="7" y2="18" stroke="#ec4899" stroke-width="1.8" stroke-linecap="round" />
    <path d="M-3,25.5 A3,3 0 0,0 3,25.5 Z" fill="#ffffff" />
    <text x="0" y="-7" text-anchor="middle" class="mono-text" font-size="4" font-weight="700" fill="#93c5fd" transform="rotate(-90,0,-7)">NVMe</text>
  </g>

  <!-- Bottom-Left: Ribbon Bow + Star Stamp -->
  <g transform="translate(55, 255)" filter="url(#sticker-shadow)">
    <g transform="rotate(12)">
      <path d="M18,16 C10,8 2,12 10,24 C2,36 10,40 18,28 C26,40 34,36 26,24 C34,12 26,8 18,16 Z" fill="#ffffff" />
      <path d="M18,17 C11,10 4,14 11,24 C4,33 11,37 18,28 C25,37 32,33 25,24 C32,14 25,10 18,17 Z" fill="#f472b6" />
      <circle cx="18" cy="23" r="4" fill="#fda4af" />
    </g>
    <g transform="translate(45, 8) rotate(-15)">
      <path d="M20,4 L25,16 L38,17 L28,25 L31,37 L20,30 L9,37 L12,25 L2,17 L15,16 Z" fill="#ffffff" stroke="#2563eb" stroke-width="1.2" stroke-dasharray="2,2" />
    </g>
  </g>

  <!-- Lower-Left Inset: TEE / Confidential Enclave Chip Sticker (Solaxis TDX / EVM & SVM) -->
  <g transform="translate(152, 280) rotate(-10)" filter="url(#sticker-shadow)">
    <rect x="-20" y="-20" width="40" height="40" rx="8" fill="#ffffff" />
    <g stroke="#94a3b8" stroke-width="1.6" stroke-linecap="round">
      <line x1="-14" y1="-17" x2="-14" y2="-19" />
      <line x1="-7" y1="-17" x2="-7" y2="-19" />
      <line x1="0" y1="-17" x2="0" y2="-19" />
      <line x1="7" y1="-17" x2="7" y2="-19" />
      <line x1="14" y1="-17" x2="14" y2="-19" />
      <line x1="-14" y1="17" x2="-14" y2="19" />
      <line x1="-7" y1="17" x2="-7" y2="19" />
      <line x1="0" y1="17" x2="0" y2="19" />
      <line x1="7" y1="17" x2="7" y2="19" />
      <line x1="14" y1="17" x2="14" y2="19" />
    </g>
    <rect x="-16" y="-16" width="32" height="32" rx="3.5" fill="#0f172a" stroke="#2563eb" stroke-width="1" />
    <path d="M-5,-3 L5,-3 C5,-3 5,5 0,7.5 C-5,5 -5,-3 -5,-3 Z" fill="none" stroke="#ec4899" stroke-width="1.3" />
    <circle cx="0" cy="0.5" r="1.2" fill="#ec4899" />
    <text x="0" y="-7" text-anchor="middle" class="mono-text" font-size="5" font-weight="700" fill="#93c5fd">TEE·TDX</text>
  </g>

  <!-- Top-Right 1: Pink Washi Tape + Chalk Star -->
  <g transform="translate(745, 30)" filter="url(#sticker-shadow)">
    <polygon points="0,5 85,-8 88,14 3,27" fill="url(#washi-pink)" />
    <g transform="translate(35, 8) rotate(12)">
      <path d="M22,5 L27,18 L40,19 L30,27 L33,39 L22,31 L11,39 L14,27 L4,19 L17,18 Z" fill="#ffffff" stroke="#ec4899" stroke-width="1.2" stroke-dasharray="2,2" />
    </g>
  </g>

  <!-- Top-Right 2: QSFP+ Optical Transceiver (Cluster Interconnect & Distributed Training) -->
  <g transform="translate(680, 50) rotate(-10)" filter="url(#sticker-shadow)">
    <rect x="-13" y="-24" width="26" height="48" rx="5" fill="#ffffff" />
    <rect x="-10.5" y="-21.5" width="21" height="43" rx="3" fill="#0f172a" stroke="#334155" stroke-width="0.8" />
    <path d="M-7,-21.5 C-7,-27 7,-27 7,-21.5" fill="none" stroke="#ec4899" stroke-width="2.5" stroke-linecap="round" />
    <rect x="-6" y="-17" width="4.5" height="6" rx="1.5" fill="#1e293b" stroke="#2563eb" stroke-width="0.6" />
    <rect x="1.5" y="-17" width="4.5" height="6" rx="1.5" fill="#1e293b" stroke="#2563eb" stroke-width="0.6" />
    <rect x="-8.5" y="-6" width="17" height="4" fill="#2563eb" />
    <g stroke="#cbd5e1" stroke-width="1" stroke-linecap="round">
      <line x1="-6" y1="17" x2="-6" y2="19.5" />
      <line x1="-2" y1="17" x2="-2" y2="19.5" />
      <line x1="2" y1="17" x2="2" y2="19.5" />
      <line x1="6" y1="17" x2="6" y2="19.5" />
    </g>
    <text x="0" y="8" text-anchor="middle" class="mono-text" font-size="4.5" font-weight="700" fill="#93c5fd">100G</text>
  </g>

  <!-- Top-Right 3: GPU Turbine Cooling Fan Sticker (Thermals & High Compute) -->
  <g transform="translate(845, 88) rotate(-18)" filter="url(#sticker-shadow)">
    <circle cx="0" cy="0" r="22" fill="#ffffff" />
    <circle cx="0" cy="0" r="19" fill="#0f172a" stroke="#334155" stroke-width="0.8" />
    <g stroke="#2563eb" stroke-width="2.2" stroke-linecap="round" opacity="0.85">
      <line x1="0" y1="-4" x2="0" y2="-15" />
      <line x1="3" y1="-2" x2="11" y2="-10" />
      <line x1="4" y1="0" x2="15" y2="0" />
      <line x1="3" y1="2" x2="11" y2="10" />
      <line x1="0" y1="4" x2="0" y2="15" />
      <line x1="-3" y1="2" x2="-11" y2="10" />
      <line x1="-4" y1="0" x2="-15" y2="0" />
      <line x1="-3" y1="-2" x2="-11" y2="-10" />
    </g>
    <circle cx="0" cy="0" r="6" fill="#1e293b" stroke="#ec4899" stroke-width="1.2" />
    <circle cx="0" cy="0" r="2.5" fill="#ec4899" />
  </g>

  <!-- Mid-Right: GPU / AI Tensor Core Accelerator Sticker (AI Infra & LLMs) -->
  <g transform="translate(755, 122) rotate(10)" filter="url(#sticker-shadow)">
    <rect x="-26" y="-26" width="52" height="52" rx="9" fill="#ffffff" />
    <rect x="-22" y="-22" width="44" height="44" rx="6" fill="#0f172a" />
    <path d="M-18,-10 L-12,-10 L-9,-14" stroke="#2563eb" stroke-width="1" fill="none" opacity="0.85" />
    <path d="M18,10 L12,10 L9,14" stroke="#ec4899" stroke-width="1" fill="none" opacity="0.85" />
    <circle cx="-9" cy="-14" r="1.2" fill="#60a5fa" />
    <circle cx="9" cy="14" r="1.2" fill="#f472b6" />
    <rect x="-13" y="-13" width="26" height="26" rx="4" fill="#1e293b" stroke="#334155" stroke-width="0.8" />
    <rect x="-9" y="-9" width="18" height="18" rx="2" fill="url(#die-shimmer)" />
    <text x="0" y="3" text-anchor="middle" class="mono-text" font-size="7" font-weight="700" fill="#ffffff" letter-spacing="0.5">GPU</text>
    <circle cx="-17" cy="-17" r="1.5" fill="#ec4899" />
  </g>

  <!-- Far-Right: High-Speed Interconnect / Network Port Sticker -->
  <g transform="translate(835, 168) rotate(-14)" filter="url(#sticker-shadow)">
    <rect x="-15" y="-18" width="30" height="36" rx="6" fill="#ffffff" />
    <rect x="-12" y="-15" width="24" height="28" rx="3.5" fill="#0f172a" stroke="#334155" stroke-width="0.8" />
    <rect x="-9" y="-8" width="18" height="18" rx="2" fill="#1e293b" />
    <g stroke="#cbd5e1" stroke-width="1.2" stroke-linecap="round">
      <line x1="-6" y1="-4" x2="-6" y2="3" />
      <line x1="-2" y1="-4" x2="-2" y2="3" />
      <line x1="2" y1="-4" x2="2" y2="3" />
      <line x1="6" y1="-4" x2="6" y2="3" />
    </g>
    <circle cx="-5" cy="-11" r="1.6" fill="#2563eb" />
    <circle cx="5" cy="-11" r="1.6" fill="#ec4899" />
  </g>

  <!-- Bottom-Right 1: Laptop Typing Sticker + Blue Tape -->
  <g class="anim-right" transform="translate(730, 225)" filter="url(#sticker-shadow)">
    <polygon points="-8,10 70,-4 73,15 -5,28" fill="url(#washi-blue)" />
    <path d="M6,16 L68,5 L96,52 L20,65 Z" fill="#ffffff" rx="6" />
    <polygon points="10,19 64,10 88,48 24,58" fill="#1e293b" stroke="#2563eb" stroke-width="0.8" />
    <line x1="22" y1="24" x2="60" y2="17" stroke="#64748b" stroke-width="1.5" stroke-dasharray="2,2" />
    <line x1="26" y1="31" x2="68" y2="24" stroke="#64748b" stroke-width="1.5" stroke-dasharray="2,2" />
    <ellipse cx="38" cy="40" rx="8" ry="11" fill="#f8fafc" stroke="#09090b" stroke-width="1" transform="rotate(20,38,40)" />
    <ellipse cx="64" cy="35" rx="8" ry="11" fill="#f8fafc" stroke="#09090b" stroke-width="1" transform="rotate(-20,64,35)" />
    <rect x="16" y="48" width="20" height="15" rx="4" fill="#2563eb" transform="rotate(15,16,48)" />
    <rect x="66" y="40" width="20" height="15" rx="4" fill="#ec4899" transform="rotate(-15,66,40)" />
  </g>

  <!-- Bottom-Right 2: Hardware Security Key Sticker (Web3 Custody & Signing) -->
  <g transform="translate(638, 298) rotate(14)" filter="url(#sticker-shadow)">
    <rect x="-11" y="-22" width="22" height="44" rx="6" fill="#ffffff" />
    <rect x="-8.5" y="-19.5" width="17" height="39" rx="4" fill="#0f172a" stroke="#2563eb" stroke-width="0.8" />
    <rect x="-5" y="-18" width="10" height="7" rx="1.5" fill="#cbd5e1" stroke="#64748b" stroke-width="0.5" />
    <circle cx="0" cy="1" r="4.5" fill="#1e293b" stroke="#ec4899" stroke-width="1" />
    <circle cx="0" cy="1" r="2" fill="#ec4899" />
    <circle cx="0" cy="13" r="2.5" fill="#ffffff" />
  </g>

  <!-- ================================================================= -->
  <!-- 100% CLEAN CENTERED NARRATIVE (NO COLLISION, SPACIOUS HIERARCHY)  -->
  <!-- ================================================================= -->

  <!-- ROW 1: "hello (there!!)" -->
  <g transform="translate(450, 56)">
    <text x="-40" y="0" text-anchor="end" class="hand-script" font-size="34" font-weight="700" fill="#0f172a" letter-spacing="1">
      hello
    </text>
    <!-- Doodle Oval circling "there!!" -->
    <g transform="translate(36, -10)">
      <ellipse cx="28" cy="0" rx="48" ry="19" fill="none" stroke="#ec4899" stroke-width="2.5" 
               stroke-linecap="round" stroke-dasharray="280" transform="rotate(-3, 28, 0)" />
      <path d="M-8,14 C12,24 55,22 72,8" fill="none" stroke="#f472b6" stroke-width="1.2" opacity="0.85" />
      <text x="28" y="8" text-anchor="middle" class="hand-script" font-size="32" font-weight="700" fill="#ec4899" font-style="italic">
        there!!
      </text>
    </g>
  </g>

  <!-- ROW 2: "Tyra Kj this side, I'm a" -->
  <text x="450" y="114" text-anchor="middle" class="hand-script" font-size="38" font-weight="600" fill="#2563eb" letter-spacing="0.5">
    Tyra Kj this side, I’m a
  </text>

  <!-- ROW 3: "full stack developer" (Centered Pill Badge) -->
  <g transform="translate(450, 168)" filter="url(#sticker-shadow)">
    <rect x="-115" y="-20" width="230" height="38" rx="10" fill="#ffffff" stroke="#2563eb" stroke-width="1.8" />
    <text x="0" y="5" text-anchor="middle" class="sans-text" font-size="16.5" font-weight="700" fill="#0f172a" letter-spacing="0.5">
      full stack developer
    </text>
  </g>

  <!-- ROW 4: "building ai infra , LLMs , agents , web 3 tools" (Centered & Beautifully Balanced) -->
  <g transform="translate(450, 226)">
    <text x="0" y="0" text-anchor="middle">
      <tspan class="hand-script" font-size="29" font-style="italic" fill="#475569">building </tspan>
      <tspan class="hand-script" font-size="31" font-weight="700" font-style="italic" fill="#ec4899">ai infra</tspan>
      <tspan class="sans-text" font-size="18" fill="#94a3b8"> , </tspan>
      <tspan class="sans-text" font-size="19" font-weight="800" fill="#2563eb" letter-spacing="0.5">LLMs</tspan>
      <tspan class="sans-text" font-size="18" fill="#94a3b8"> , </tspan>
      <tspan class="hand-script" font-size="31" font-weight="700" font-style="italic" fill="#ec4899">agents</tspan>
      <tspan class="sans-text" font-size="18" fill="#94a3b8"> , </tspan>
      <tspan class="sans-text" font-size="19" font-weight="800" fill="#0f172a" letter-spacing="0.5">web 3 tools</tspan>
    </text>
    <!-- Subtle Pink Wave Doodle Underline -->
    <path d="M-202,11 Q0,18 202,11" fill="none" stroke="#ec4899" stroke-width="2" stroke-linecap="round" opacity="0.85" />
  </g>

  <!-- ROW 5: Action Guide & Buttons -->
  <g transform="translate(450, 292)">
    <!-- "psst... start here ↘" -->
    <text x="-95" y="-14" text-anchor="middle" class="hand-script" font-size="17" font-weight="700" fill="#ec4899">
      psst... start here ↘
    </text>

    <!-- Button 1: |SEE MY WORK -->
    <a href="#featured-projects" class="btn-hover">
      <g filter="url(#sticker-shadow)">
        <rect x="-160" y="0" width="150" height="34" rx="6" fill="#ffffff" stroke="#cbd5e1" stroke-width="1.2" />
        <line x1="-148" y1="6" x2="-148" y2="28" stroke="#2563eb" stroke-width="3" stroke-linecap="round" />
        <text x="-75" y="21" text-anchor="middle" class="mono-text" font-size="13" font-weight="700" fill="#0f172a" letter-spacing="1.5">
          SEE MY WORK
        </text>
      </g>
    </a>

    <!-- Button 2: |DROP ME A LINE -->
    <a href="mailto:tyra191712@gmail.com" class="btn-hover">
      <g filter="url(#sticker-shadow)">
        <rect x="10" y="0" width="154" height="34" rx="6" fill="#ffffff" stroke="#cbd5e1" stroke-width="1.2" />
        <line x1="22" y1="6" x2="22" y2="28" stroke="#ec4899" stroke-width="3" stroke-linecap="round" />
        <text x="94" y="21" text-anchor="middle" class="mono-text" font-size="13" font-weight="700" fill="#0f172a" letter-spacing="1.5">
          DROP ME A LINE
        </text>
      </g>
    </a>
  </g>
</svg>
